<mxfile host="app.diagrams.net" agent="Mozilla/5.0 (Windows NT 10.0; Win64; x64) AppleWebKit/537.36 (KHTML, like Gecko) Chrome/130.0.0.0 Safari/537.36" version="24.8.4">
  <diagram name="Страница — 1" id="5-wUqx7X6pIQO82QbJgh">
    <mxGraphModel grid="1" page="1" gridSize="10" guides="1" tooltips="1" connect="1" arrows="1" fold="1" pageScale="1" pageWidth="827" pageHeight="1169" math="0" shadow="0">
      <root>
        <mxCell id="0" />
        <mxCell id="1" parent="0" />
        <mxCell id="8w9vdPJpi9KEnKkPlF_M-1" value="Person" style="swimlane;fontStyle=1;align=center;verticalAlign=top;childLayout=stackLayout;horizontal=1;startSize=26;horizontalStack=0;resizeParent=1;resizeParentMax=0;resizeLast=0;collapsible=1;marginBottom=0;whiteSpace=wrap;html=1;" vertex="1" parent="1">
          <mxGeometry x="250" y="10" width="350" height="300" as="geometry" />
        </mxCell>
        <mxCell id="8w9vdPJpi9KEnKkPlF_M-2" value="- id: Integer&lt;div&gt;- git: String&lt;br&gt;&lt;/div&gt;" style="text;strokeColor=none;fillColor=none;align=left;verticalAlign=top;spacingLeft=4;spacingRight=4;overflow=hidden;rotatable=0;points=[[0,0.5],[1,0.5]];portConstraint=eastwest;whiteSpace=wrap;html=1;" vertex="1" parent="8w9vdPJpi9KEnKkPlF_M-1">
          <mxGeometry y="26" width="350" height="54" as="geometry" />
        </mxCell>
        <mxCell id="8w9vdPJpi9KEnKkPlF_M-3" value="" style="line;strokeWidth=1;fillColor=none;align=left;verticalAlign=middle;spacingTop=-1;spacingLeft=3;spacingRight=3;rotatable=0;labelPosition=right;points=[];portConstraint=eastwest;strokeColor=inherit;" vertex="1" parent="8w9vdPJpi9KEnKkPlF_M-1">
          <mxGeometry y="80" width="350" height="8" as="geometry" />
        </mxCell>
        <mxCell id="8w9vdPJpi9KEnKkPlF_M-4" value="&lt;div&gt;+ id: Integer&amp;nbsp; &amp;nbsp; &amp;nbsp; &amp;nbsp; &amp;nbsp; &amp;nbsp; &amp;nbsp; &amp;nbsp; &amp;nbsp; &amp;nbsp; &amp;nbsp; &amp;nbsp; &amp;nbsp; &amp;nbsp; &amp;nbsp; &amp;nbsp; &amp;nbsp; &amp;nbsp; &amp;nbsp; &amp;nbsp; &amp;nbsp; &amp;nbsp; &amp;nbsp; &amp;nbsp; &amp;nbsp; &amp;nbsp; &amp;nbsp; &amp;nbsp; &amp;nbsp; &amp;nbsp; &amp;nbsp; &amp;nbsp; &amp;nbsp; &amp;nbsp; &amp;nbsp; &amp;nbsp; &amp;nbsp; &amp;nbsp; &amp;nbsp;get&lt;/div&gt;&lt;div&gt;+ git: String&amp;nbsp; &amp;nbsp; &amp;nbsp; &amp;nbsp; &amp;nbsp; &amp;nbsp; &amp;nbsp; &amp;nbsp; &amp;nbsp; &amp;nbsp; &amp;nbsp; &amp;nbsp; &amp;nbsp; &amp;nbsp; &amp;nbsp; &amp;nbsp; &amp;nbsp; &amp;nbsp; &amp;nbsp; &amp;nbsp; &amp;nbsp; &amp;nbsp; &amp;nbsp; &amp;nbsp; &amp;nbsp; &amp;nbsp; &amp;nbsp; &amp;nbsp; &amp;nbsp; &amp;nbsp; &amp;nbsp; &amp;nbsp; &amp;nbsp; &amp;nbsp; &amp;nbsp; &amp;nbsp; &amp;nbsp; &amp;nbsp; &amp;nbsp; get&lt;br&gt;+ git(git: String): String&amp;nbsp; &amp;nbsp; &amp;nbsp; &amp;nbsp; &amp;nbsp; &amp;nbsp; &amp;nbsp; &amp;nbsp; &amp;nbsp; &amp;nbsp; &amp;nbsp; &amp;nbsp; &amp;nbsp; &amp;nbsp; &amp;nbsp; &amp;nbsp; &amp;nbsp; &amp;nbsp; &amp;nbsp; &amp;nbsp; &amp;nbsp; &amp;nbsp; &amp;nbsp; &amp;nbsp; &amp;nbsp; &amp;nbsp; &amp;nbsp; &amp;nbsp; &amp;nbsp; &amp;nbsp; &amp;nbsp;set&lt;/div&gt;&lt;div&gt;+ validate_git?(): Boolean&lt;br&gt;+ validate?(): Boolean&lt;/div&gt;&lt;div&gt;+ &lt;i&gt;get_any_contact(): String&lt;/i&gt;&lt;br&gt;# &lt;i&gt;set_contacts(contact: String)&lt;/i&gt;&lt;br&gt;&lt;br&gt;# &lt;u&gt;valid_phone_number?(phone_number: String): Boolean&lt;/u&gt;&lt;/div&gt;&lt;div&gt;# &lt;u&gt;valid_git?(git: String): Boolean&lt;/u&gt;&lt;/div&gt;&lt;div&gt;# &lt;u&gt;valid_telegram?(telegram: String): Boolean&lt;/u&gt;&lt;/div&gt;&lt;div&gt;# &lt;u&gt;valid_email?(email: String): Boolean&lt;/u&gt;&lt;/div&gt;&lt;div&gt;#&amp;nbsp;&lt;u&gt;valid_name?(name: String): Boolean&lt;/u&gt;&lt;br&gt;&lt;/div&gt;&lt;div&gt;# &lt;u&gt;parse_string(string: String): Hash&lt;/u&gt;&lt;/div&gt;&lt;div&gt;&lt;br&gt;&lt;/div&gt;&lt;div&gt;&lt;br&gt;&lt;/div&gt;&lt;div&gt;&lt;br&gt;&lt;/div&gt;" style="text;strokeColor=none;fillColor=none;align=left;verticalAlign=top;spacingLeft=4;spacingRight=4;overflow=hidden;rotatable=0;points=[[0,0.5],[1,0.5]];portConstraint=eastwest;whiteSpace=wrap;html=1;" vertex="1" parent="8w9vdPJpi9KEnKkPlF_M-1">
          <mxGeometry y="88" width="350" height="212" as="geometry" />
        </mxCell>
        <mxCell id="8w9vdPJpi9KEnKkPlF_M-5" value="Student" style="swimlane;fontStyle=1;align=center;verticalAlign=top;childLayout=stackLayout;horizontal=1;startSize=26;horizontalStack=0;resizeParent=1;resizeParentMax=0;resizeLast=0;collapsible=1;marginBottom=0;whiteSpace=wrap;html=1;" vertex="1" parent="1">
          <mxGeometry x="40" y="390" width="350" height="480" as="geometry" />
        </mxCell>
        <mxCell id="8w9vdPJpi9KEnKkPlF_M-6" value="&lt;div&gt;- first_name: String&lt;/div&gt;&lt;div&gt;- name: String&lt;/div&gt;&lt;div&gt;- patronymic: String&lt;/div&gt;&lt;div&gt;- phone_number: String&lt;/div&gt;&lt;div&gt;- telegram: String&lt;/div&gt;&lt;div&gt;- email: String&lt;/div&gt;" style="text;strokeColor=none;fillColor=none;align=left;verticalAlign=top;spacingLeft=4;spacingRight=4;overflow=hidden;rotatable=0;points=[[0,0.5],[1,0.5]];portConstraint=eastwest;whiteSpace=wrap;html=1;" vertex="1" parent="8w9vdPJpi9KEnKkPlF_M-5">
          <mxGeometry y="26" width="350" height="104" as="geometry" />
        </mxCell>
        <mxCell id="8w9vdPJpi9KEnKkPlF_M-7" value="" style="line;strokeWidth=1;fillColor=none;align=left;verticalAlign=middle;spacingTop=-1;spacingLeft=3;spacingRight=3;rotatable=0;labelPosition=right;points=[];portConstraint=eastwest;strokeColor=inherit;" vertex="1" parent="8w9vdPJpi9KEnKkPlF_M-5">
          <mxGeometry y="130" width="350" height="8" as="geometry" />
        </mxCell>
        <mxCell id="8w9vdPJpi9KEnKkPlF_M-8" value="&lt;div&gt;&lt;span style=&quot;background-color: initial;&quot;&gt;+ id(id: Integer)&amp;nbsp; &amp;nbsp; &amp;nbsp; &amp;nbsp; &amp;nbsp; &amp;nbsp; &amp;nbsp; &amp;nbsp; &amp;nbsp; &amp;nbsp; &amp;nbsp; &amp;nbsp; &amp;nbsp; &amp;nbsp; &amp;nbsp; &amp;nbsp; &amp;nbsp; &amp;nbsp; &amp;nbsp; &amp;nbsp; &amp;nbsp; &amp;nbsp; &amp;nbsp; &amp;nbsp; &amp;nbsp; &amp;nbsp; &amp;nbsp; &amp;nbsp; &amp;nbsp; &amp;nbsp; &amp;nbsp; &amp;nbsp; &amp;nbsp; &amp;nbsp; &amp;nbsp; &amp;nbsp; set&lt;/span&gt;&lt;br&gt;&lt;/div&gt;+ first_name: String&amp;nbsp; &amp;nbsp; &amp;nbsp; &amp;nbsp; &amp;nbsp; &amp;nbsp; &amp;nbsp; &amp;nbsp; &amp;nbsp; &amp;nbsp; &amp;nbsp; &amp;nbsp; &amp;nbsp; &amp;nbsp; &amp;nbsp; &amp;nbsp; &amp;nbsp; &amp;nbsp; &amp;nbsp; &amp;nbsp; &amp;nbsp; &amp;nbsp; &amp;nbsp; &amp;nbsp; &amp;nbsp; &amp;nbsp; &amp;nbsp; &amp;nbsp; &amp;nbsp; &amp;nbsp; &amp;nbsp; &amp;nbsp; &amp;nbsp;get&lt;div&gt;- first_name=(first_name: String)&amp;nbsp; &amp;nbsp; &amp;nbsp; &amp;nbsp; &amp;nbsp; &amp;nbsp; &amp;nbsp; &amp;nbsp; &amp;nbsp; &amp;nbsp; &amp;nbsp; &amp;nbsp; &amp;nbsp; &amp;nbsp; &amp;nbsp; &amp;nbsp; &amp;nbsp; &amp;nbsp; &amp;nbsp; &amp;nbsp; &amp;nbsp; &amp;nbsp; &amp;nbsp;set&lt;br&gt;+ name: String&amp;nbsp; &amp;nbsp; &amp;nbsp; &amp;nbsp; &amp;nbsp; &amp;nbsp; &amp;nbsp; &amp;nbsp; &amp;nbsp; &amp;nbsp; &amp;nbsp; &amp;nbsp; &amp;nbsp; &amp;nbsp; &amp;nbsp; &amp;nbsp; &amp;nbsp; &amp;nbsp; &amp;nbsp; &amp;nbsp; &amp;nbsp; &amp;nbsp; &amp;nbsp; &amp;nbsp; &amp;nbsp; &amp;nbsp; &amp;nbsp; &amp;nbsp; &amp;nbsp; &amp;nbsp; &amp;nbsp; &amp;nbsp; &amp;nbsp; &amp;nbsp; &amp;nbsp; &amp;nbsp; &amp;nbsp;get&lt;br&gt;- name=(name: String)&amp;nbsp; &amp;nbsp; &amp;nbsp; &amp;nbsp; &amp;nbsp; &amp;nbsp; &amp;nbsp; &amp;nbsp; &amp;nbsp; &amp;nbsp; &amp;nbsp; &amp;nbsp; &amp;nbsp; &amp;nbsp; &amp;nbsp; &amp;nbsp; &amp;nbsp; &amp;nbsp; &amp;nbsp; &amp;nbsp; &amp;nbsp; &amp;nbsp; &amp;nbsp; &amp;nbsp; &amp;nbsp; &amp;nbsp; &amp;nbsp; &amp;nbsp; &amp;nbsp; &amp;nbsp; set&lt;br&gt;+ patronymic: String&amp;nbsp; &amp;nbsp; &amp;nbsp; &amp;nbsp; &amp;nbsp; &amp;nbsp; &amp;nbsp; &amp;nbsp; &amp;nbsp; &amp;nbsp; &amp;nbsp; &amp;nbsp; &amp;nbsp; &amp;nbsp; &amp;nbsp; &amp;nbsp; &amp;nbsp; &amp;nbsp; &amp;nbsp; &amp;nbsp; &amp;nbsp; &amp;nbsp; &amp;nbsp; &amp;nbsp; &amp;nbsp; &amp;nbsp; &amp;nbsp; &amp;nbsp; &amp;nbsp; &amp;nbsp; &amp;nbsp; &amp;nbsp; get&lt;/div&gt;&lt;div&gt;- patronymic=(patronymic: String)&amp;nbsp; &amp;nbsp; &amp;nbsp; &amp;nbsp; &amp;nbsp; &amp;nbsp; &amp;nbsp; &amp;nbsp; &amp;nbsp; &amp;nbsp; &amp;nbsp; &amp;nbsp; &amp;nbsp; &amp;nbsp; &amp;nbsp; &amp;nbsp; &amp;nbsp; &amp;nbsp; &amp;nbsp; &amp;nbsp; &amp;nbsp; &amp;nbsp;set&lt;/div&gt;&lt;div&gt;+ email: String&amp;nbsp; &amp;nbsp; &amp;nbsp; &amp;nbsp; &amp;nbsp; &amp;nbsp; &amp;nbsp; &amp;nbsp; &amp;nbsp; &amp;nbsp; &amp;nbsp; &amp;nbsp; &amp;nbsp; &amp;nbsp; &amp;nbsp; &amp;nbsp; &amp;nbsp; &amp;nbsp; &amp;nbsp; &amp;nbsp; &amp;nbsp; &amp;nbsp; &amp;nbsp; &amp;nbsp; &amp;nbsp; &amp;nbsp; &amp;nbsp; &amp;nbsp; &amp;nbsp; &amp;nbsp; &amp;nbsp; &amp;nbsp; &amp;nbsp; &amp;nbsp; &amp;nbsp; &amp;nbsp; &amp;nbsp;get&lt;/div&gt;&lt;div&gt;+ telegram: String&amp;nbsp; &amp;nbsp; &amp;nbsp; &amp;nbsp; &amp;nbsp; &amp;nbsp; &amp;nbsp; &amp;nbsp; &amp;nbsp; &amp;nbsp; &amp;nbsp; &amp;nbsp; &amp;nbsp; &amp;nbsp; &amp;nbsp; &amp;nbsp; &amp;nbsp; &amp;nbsp; &amp;nbsp; &amp;nbsp; &amp;nbsp; &amp;nbsp; &amp;nbsp; &amp;nbsp; &amp;nbsp; &amp;nbsp; &amp;nbsp; &amp;nbsp; &amp;nbsp; &amp;nbsp; &amp;nbsp; &amp;nbsp; &amp;nbsp; &amp;nbsp; get&lt;br&gt;+ phone_number: String&amp;nbsp; &amp;nbsp; &amp;nbsp; &amp;nbsp; &amp;nbsp; &amp;nbsp; &amp;nbsp; &amp;nbsp; &amp;nbsp; &amp;nbsp; &amp;nbsp; &amp;nbsp; &amp;nbsp; &amp;nbsp; &amp;nbsp; &amp;nbsp; &amp;nbsp; &amp;nbsp; &amp;nbsp; &amp;nbsp; &amp;nbsp; &amp;nbsp; &amp;nbsp; &amp;nbsp; &amp;nbsp; &amp;nbsp; &amp;nbsp; &amp;nbsp; &amp;nbsp; get&lt;/div&gt;&lt;div&gt;+ to_s(): String&lt;br&gt;+ to_line_s(): String&lt;/div&gt;&lt;div&gt;+ get_info(): String&lt;/div&gt;&lt;div&gt;+ get_full_name(): String&lt;/div&gt;&lt;div&gt;+ get_any_contact(): String&lt;br&gt;&lt;br&gt;+ validate_contacts?(): Boolean&lt;/div&gt;&lt;div&gt;- set_contacts(git, phone_number, telegram, email: String)&lt;br&gt;&lt;br&gt;+ &amp;lt;&amp;lt;create&amp;gt;&amp;gt; new(first_name, name, patronymic: String, git: String, id: Integer, email: String, phone_number: String, telegram: String)&lt;/div&gt;&lt;div&gt;+ &amp;lt;&amp;lt;create&amp;gt;&amp;gt; new_from_string(string: String)&lt;br&gt;&lt;br&gt;&lt;/div&gt;" style="text;strokeColor=none;fillColor=none;align=left;verticalAlign=top;spacingLeft=4;spacingRight=4;overflow=hidden;rotatable=0;points=[[0,0.5],[1,0.5]];portConstraint=eastwest;whiteSpace=wrap;html=1;" vertex="1" parent="8w9vdPJpi9KEnKkPlF_M-5">
          <mxGeometry y="138" width="350" height="342" as="geometry" />
        </mxCell>
        <mxCell id="8w9vdPJpi9KEnKkPlF_M-9" value="Student_short" style="swimlane;fontStyle=1;align=center;verticalAlign=top;childLayout=stackLayout;horizontal=1;startSize=26;horizontalStack=0;resizeParent=1;resizeParentMax=0;resizeLast=0;collapsible=1;marginBottom=0;whiteSpace=wrap;html=1;" vertex="1" parent="1">
          <mxGeometry x="450" y="390" width="350" height="280" as="geometry" />
        </mxCell>
        <mxCell id="8w9vdPJpi9KEnKkPlF_M-10" value="&lt;div&gt;&lt;span style=&quot;background-color: initial;&quot;&gt;- full_name: String&lt;br&gt;- contact: String&lt;/span&gt;&lt;br&gt;&lt;/div&gt;&lt;div&gt;&lt;br&gt;&lt;/div&gt;" style="text;strokeColor=none;fillColor=none;align=left;verticalAlign=top;spacingLeft=4;spacingRight=4;overflow=hidden;rotatable=0;points=[[0,0.5],[1,0.5]];portConstraint=eastwest;whiteSpace=wrap;html=1;" vertex="1" parent="8w9vdPJpi9KEnKkPlF_M-9">
          <mxGeometry y="26" width="350" height="44" as="geometry" />
        </mxCell>
        <mxCell id="8w9vdPJpi9KEnKkPlF_M-11" value="" style="line;strokeWidth=1;fillColor=none;align=left;verticalAlign=middle;spacingTop=-1;spacingLeft=3;spacingRight=3;rotatable=0;labelPosition=right;points=[];portConstraint=eastwest;strokeColor=inherit;" vertex="1" parent="8w9vdPJpi9KEnKkPlF_M-9">
          <mxGeometry y="70" width="350" height="8" as="geometry" />
        </mxCell>
        <mxCell id="8w9vdPJpi9KEnKkPlF_M-12" value="&lt;div&gt;&lt;span style=&quot;background-color: initial;&quot;&gt;- id(id: Integer)&amp;nbsp; &amp;nbsp; &amp;nbsp; &amp;nbsp; &amp;nbsp; &amp;nbsp; &amp;nbsp; &amp;nbsp; &amp;nbsp; &amp;nbsp; &amp;nbsp; &amp;nbsp; &amp;nbsp; &amp;nbsp; &amp;nbsp; &amp;nbsp; &amp;nbsp; &amp;nbsp; &amp;nbsp; &amp;nbsp; &amp;nbsp; &amp;nbsp; &amp;nbsp; &amp;nbsp; &amp;nbsp; &amp;nbsp; &amp;nbsp; &amp;nbsp; &amp;nbsp; &amp;nbsp; &amp;nbsp; &amp;nbsp; &amp;nbsp; &amp;nbsp; &amp;nbsp; &amp;nbsp; &amp;nbsp;set&lt;/span&gt;&lt;/div&gt;&lt;div&gt;+ full_name: String&amp;nbsp; &amp;nbsp; &amp;nbsp; &amp;nbsp; &amp;nbsp; &amp;nbsp; &amp;nbsp; &amp;nbsp; &amp;nbsp; &amp;nbsp; &amp;nbsp; &amp;nbsp; &amp;nbsp; &amp;nbsp; &amp;nbsp; &amp;nbsp; &amp;nbsp; &amp;nbsp; &amp;nbsp; &amp;nbsp; &amp;nbsp; &amp;nbsp; &amp;nbsp; &amp;nbsp; &amp;nbsp; &amp;nbsp; &amp;nbsp; &amp;nbsp; &amp;nbsp; &amp;nbsp; &amp;nbsp; &amp;nbsp; &amp;nbsp; get&lt;br&gt;- full_name=(fullname: String)&amp;nbsp; &amp;nbsp; &amp;nbsp; &amp;nbsp; &amp;nbsp; &amp;nbsp; &amp;nbsp; &amp;nbsp; &amp;nbsp; &amp;nbsp; &amp;nbsp; &amp;nbsp; &amp;nbsp; &amp;nbsp; &amp;nbsp; &amp;nbsp; &amp;nbsp; &amp;nbsp; &amp;nbsp; &amp;nbsp; &amp;nbsp; &amp;nbsp; &amp;nbsp; &amp;nbsp; &amp;nbsp;set&lt;br&gt;+ get_any_contact(): String&amp;nbsp; &amp;nbsp; &amp;nbsp; &amp;nbsp; &amp;nbsp; &amp;nbsp; &amp;nbsp; &amp;nbsp; &amp;nbsp; &amp;nbsp; &amp;nbsp; &amp;nbsp; &amp;nbsp; &amp;nbsp; &amp;nbsp; &amp;nbsp;&amp;nbsp;&lt;/div&gt;&lt;div&gt;- set_contacts(contact: String)&lt;/div&gt;&lt;div&gt;- git=(git: String)&amp;nbsp; &amp;nbsp; &amp;nbsp; &amp;nbsp; &amp;nbsp; &amp;nbsp; &amp;nbsp; &amp;nbsp; &amp;nbsp; &amp;nbsp; &amp;nbsp; &amp;nbsp; &amp;nbsp; &amp;nbsp; &amp;nbsp; &amp;nbsp; &amp;nbsp; &amp;nbsp; &amp;nbsp; &amp;nbsp; &amp;nbsp; &amp;nbsp; &amp;nbsp; &amp;nbsp; &amp;nbsp; &amp;nbsp; &amp;nbsp; &amp;nbsp; &amp;nbsp; &amp;nbsp; &amp;nbsp; &amp;nbsp; &amp;nbsp; &amp;nbsp; &amp;nbsp; &amp;nbsp;set&lt;br&gt;+ validate_contacts?(): Boolean&lt;br&gt;+validate?(): Boolean&lt;/div&gt;&lt;div&gt;&lt;br&gt;&lt;/div&gt;&lt;div&gt;- &lt;u&gt;valid_name?(name: String): Boolean&lt;/u&gt;&lt;/div&gt;&lt;div&gt;&lt;u&gt;&lt;br&gt;&lt;/u&gt;+ &amp;lt;&amp;lt;create&amp;gt;&amp;gt; new_from_student_obj(student: Student)&lt;/div&gt;&lt;div&gt;+ &amp;lt;&amp;lt;create&amp;gt;&amp;gt; new_from_string(id: Integer, string: String)&lt;br&gt;&lt;/div&gt;&lt;div&gt;&lt;br&gt;&lt;/div&gt;&lt;div&gt;&lt;br&gt;&lt;/div&gt;" style="text;strokeColor=none;fillColor=none;align=left;verticalAlign=top;spacingLeft=4;spacingRight=4;overflow=hidden;rotatable=0;points=[[0,0.5],[1,0.5]];portConstraint=eastwest;whiteSpace=wrap;html=1;" vertex="1" parent="8w9vdPJpi9KEnKkPlF_M-9">
          <mxGeometry y="78" width="350" height="202" as="geometry" />
        </mxCell>
        <mxCell id="8w9vdPJpi9KEnKkPlF_M-13" value="" style="endArrow=block;endSize=16;endFill=0;html=1;rounded=0;exitX=0.512;exitY=0;exitDx=0;exitDy=0;exitPerimeter=0;" edge="1" parent="1" source="8w9vdPJpi9KEnKkPlF_M-5">
          <mxGeometry width="160" relative="1" as="geometry">
            <mxPoint x="220" y="350" as="sourcePoint" />
            <mxPoint x="420" y="310" as="targetPoint" />
            <Array as="points">
              <mxPoint x="220" y="350" />
              <mxPoint x="420" y="350" />
            </Array>
          </mxGeometry>
        </mxCell>
        <mxCell id="8w9vdPJpi9KEnKkPlF_M-14" value="" style="endArrow=block;endSize=16;endFill=0;html=1;rounded=0;exitX=0.484;exitY=-0.002;exitDx=0;exitDy=0;exitPerimeter=0;" edge="1" parent="1" source="8w9vdPJpi9KEnKkPlF_M-9">
          <mxGeometry width="160" relative="1" as="geometry">
            <mxPoint x="205" y="320" as="sourcePoint" />
            <mxPoint x="420" y="310" as="targetPoint" />
            <Array as="points">
              <mxPoint x="620" y="350" />
              <mxPoint x="420" y="350" />
            </Array>
          </mxGeometry>
        </mxCell>
        <mxCell id="5-nP5moGx_K60F7qfpw7-1" value="Data_table" style="swimlane;fontStyle=1;align=center;verticalAlign=top;childLayout=stackLayout;horizontal=1;startSize=26;horizontalStack=0;resizeParent=1;resizeParentMax=0;resizeLast=0;collapsible=1;marginBottom=0;whiteSpace=wrap;html=1;" vertex="1" parent="1">
          <mxGeometry x="30" y="900" width="350" height="210" as="geometry" />
        </mxCell>
        <mxCell id="5-nP5moGx_K60F7qfpw7-2" value="- data: Object[][]" style="text;strokeColor=none;fillColor=none;align=left;verticalAlign=top;spacingLeft=4;spacingRight=4;overflow=hidden;rotatable=0;points=[[0,0.5],[1,0.5]];portConstraint=eastwest;whiteSpace=wrap;html=1;" vertex="1" parent="5-nP5moGx_K60F7qfpw7-1">
          <mxGeometry y="26" width="350" height="34" as="geometry" />
        </mxCell>
        <mxCell id="5-nP5moGx_K60F7qfpw7-3" value="" style="line;strokeWidth=1;fillColor=none;align=left;verticalAlign=middle;spacingTop=-1;spacingLeft=3;spacingRight=3;rotatable=0;labelPosition=right;points=[];portConstraint=eastwest;strokeColor=inherit;" vertex="1" parent="5-nP5moGx_K60F7qfpw7-1">
          <mxGeometry y="60" width="350" height="8" as="geometry" />
        </mxCell>
        <mxCell id="5-nP5moGx_K60F7qfpw7-4" value="+ row_count(): Integer&lt;br&gt;+ col_count(): Integer&lt;br&gt;+ get(row, col: Integer): Object&lt;br&gt;- data=(data: Object[][])&amp;nbsp; &amp;nbsp; &amp;nbsp; &amp;nbsp; &amp;nbsp; &amp;nbsp; &amp;nbsp; &amp;nbsp; &amp;nbsp; &amp;nbsp; &amp;nbsp; &amp;nbsp; &amp;nbsp; &amp;nbsp; &amp;nbsp; &amp;nbsp; &amp;nbsp; &amp;nbsp; &amp;nbsp; &amp;nbsp; &amp;nbsp; &amp;nbsp; &amp;nbsp; &amp;nbsp; &amp;nbsp; &amp;nbsp; &amp;nbsp; &amp;nbsp; &amp;nbsp; &amp;nbsp;set&lt;br&gt;- data: Object[][]&amp;nbsp; &amp;nbsp; &amp;nbsp; &amp;nbsp; &amp;nbsp; &amp;nbsp; &amp;nbsp; &amp;nbsp; &amp;nbsp; &amp;nbsp; &amp;nbsp; &amp;nbsp; &amp;nbsp; &amp;nbsp; &amp;nbsp; &amp;nbsp; &amp;nbsp; &amp;nbsp; &amp;nbsp; &amp;nbsp; &amp;nbsp; &amp;nbsp; &amp;nbsp; &amp;nbsp; &amp;nbsp; &amp;nbsp; &amp;nbsp; &amp;nbsp; &amp;nbsp; &amp;nbsp; &amp;nbsp; &amp;nbsp; &amp;nbsp; &amp;nbsp; &amp;nbsp; get&lt;br&gt;- valid_row?(row: Integer): Boolean&lt;br&gt;- valid_col?(col: Integer): Boolean&lt;br&gt;&lt;br&gt;+ &amp;lt;&amp;lt;create&amp;gt;&amp;gt; new(data: Object[][])" style="text;strokeColor=none;fillColor=none;align=left;verticalAlign=top;spacingLeft=4;spacingRight=4;overflow=hidden;rotatable=0;points=[[0,0.5],[1,0.5]];portConstraint=eastwest;whiteSpace=wrap;html=1;" vertex="1" parent="5-nP5moGx_K60F7qfpw7-1">
          <mxGeometry y="68" width="350" height="142" as="geometry" />
        </mxCell>
        <mxCell id="5-nP5moGx_K60F7qfpw7-5" value="Data_list" style="swimlane;fontStyle=1;align=center;verticalAlign=top;childLayout=stackLayout;horizontal=1;startSize=26;horizontalStack=0;resizeParent=1;resizeParentMax=0;resizeLast=0;collapsible=1;marginBottom=0;whiteSpace=wrap;html=1;" vertex="1" parent="1">
          <mxGeometry x="30" y="1190" width="350" height="300" as="geometry" />
        </mxCell>
        <mxCell id="5-nP5moGx_K60F7qfpw7-6" value="- data: Object[][]&lt;div&gt;- selected: Integer[]&lt;/div&gt;" style="text;strokeColor=none;fillColor=none;align=left;verticalAlign=top;spacingLeft=4;spacingRight=4;overflow=hidden;rotatable=0;points=[[0,0.5],[1,0.5]];portConstraint=eastwest;whiteSpace=wrap;html=1;" vertex="1" parent="5-nP5moGx_K60F7qfpw7-5">
          <mxGeometry y="26" width="350" height="34" as="geometry" />
        </mxCell>
        <mxCell id="5-nP5moGx_K60F7qfpw7-7" value="" style="line;strokeWidth=1;fillColor=none;align=left;verticalAlign=middle;spacingTop=-1;spacingLeft=3;spacingRight=3;rotatable=0;labelPosition=right;points=[];portConstraint=eastwest;strokeColor=inherit;" vertex="1" parent="5-nP5moGx_K60F7qfpw7-5">
          <mxGeometry y="60" width="350" height="8" as="geometry" />
        </mxCell>
        <mxCell id="5-nP5moGx_K60F7qfpw7-8" value="+ select(number: Integer)&lt;br&gt;+ get_selected(): Integer[][]&lt;br&gt;+ clear_selected()&lt;div&gt;+ retrieve_data(): Data_table&lt;br&gt;+ &lt;i&gt;get_names(): String[]&lt;/i&gt;&lt;br&gt;+ get_data(): Object[][]&lt;br&gt;+ data=(data: Object[])&amp;nbsp; &amp;nbsp; &amp;nbsp; &amp;nbsp; &amp;nbsp; &amp;nbsp; &amp;nbsp; &amp;nbsp; &amp;nbsp; &amp;nbsp; &amp;nbsp; &amp;nbsp; &amp;nbsp; &amp;nbsp; &amp;nbsp; &amp;nbsp; &amp;nbsp; &amp;nbsp; &amp;nbsp; &amp;nbsp; &amp;nbsp; &amp;nbsp; &amp;nbsp; &amp;nbsp; &amp;nbsp; &amp;nbsp; &amp;nbsp; &amp;nbsp; &amp;nbsp; &amp;nbsp; set&lt;br&gt;# data: Object[][]&amp;nbsp; &amp;nbsp; &amp;nbsp; &amp;nbsp; &amp;nbsp; &amp;nbsp; &amp;nbsp; &amp;nbsp; &amp;nbsp; &amp;nbsp; &amp;nbsp; &amp;nbsp; &amp;nbsp; &amp;nbsp; &amp;nbsp; &amp;nbsp; &amp;nbsp; &amp;nbsp; &amp;nbsp; &amp;nbsp; &amp;nbsp; &amp;nbsp; &amp;nbsp; &amp;nbsp; &amp;nbsp; &amp;nbsp; &amp;nbsp; &amp;nbsp; &amp;nbsp; &amp;nbsp; &amp;nbsp; &amp;nbsp; &amp;nbsp; &amp;nbsp; &amp;nbsp; get&lt;br&gt;# selected=(selected: Integer[])&amp;nbsp; &amp;nbsp; &amp;nbsp; &amp;nbsp; &amp;nbsp; &amp;nbsp; &amp;nbsp; &amp;nbsp; &amp;nbsp; &amp;nbsp; &amp;nbsp; &amp;nbsp; &amp;nbsp; &amp;nbsp; &amp;nbsp; &amp;nbsp; &amp;nbsp; &amp;nbsp; &amp;nbsp; &amp;nbsp; &amp;nbsp; &amp;nbsp; &amp;nbsp; &amp;nbsp;set&lt;br&gt;# selected: Integer[]&amp;nbsp; &amp;nbsp; &amp;nbsp; &amp;nbsp; &amp;nbsp; &amp;nbsp; &amp;nbsp; &amp;nbsp; &amp;nbsp; &amp;nbsp; &amp;nbsp; &amp;nbsp; &amp;nbsp; &amp;nbsp; &amp;nbsp; &amp;nbsp; &amp;nbsp; &amp;nbsp; &amp;nbsp; &amp;nbsp; &amp;nbsp; &amp;nbsp; &amp;nbsp; &amp;nbsp; &amp;nbsp; &amp;nbsp; &amp;nbsp; &amp;nbsp; &amp;nbsp; &amp;nbsp; &amp;nbsp; &amp;nbsp; &amp;nbsp;get&lt;br&gt;# valid_index?(index: Integer): Boolean&lt;br&gt;# &lt;i&gt;build_row(index: Integer, obj: Object): Object[]&lt;/i&gt;&lt;br&gt;&lt;br&gt;+ &amp;lt;&amp;lt;create&amp;gt;&amp;gt; new(elements: Object[])&lt;br&gt;&lt;br&gt;&lt;br&gt;&lt;/div&gt;" style="text;strokeColor=none;fillColor=none;align=left;verticalAlign=top;spacingLeft=4;spacingRight=4;overflow=hidden;rotatable=0;points=[[0,0.5],[1,0.5]];portConstraint=eastwest;whiteSpace=wrap;html=1;" vertex="1" parent="5-nP5moGx_K60F7qfpw7-5">
          <mxGeometry y="68" width="350" height="232" as="geometry" />
        </mxCell>
        <mxCell id="5-nP5moGx_K60F7qfpw7-9" value="Data_list_student_short" style="swimlane;fontStyle=1;align=center;verticalAlign=top;childLayout=stackLayout;horizontal=1;startSize=26;horizontalStack=0;resizeParent=1;resizeParentMax=0;resizeLast=0;collapsible=1;marginBottom=0;whiteSpace=wrap;html=1;" vertex="1" parent="1">
          <mxGeometry x="450" y="1020" width="350" height="90" as="geometry" />
        </mxCell>
        <mxCell id="5-nP5moGx_K60F7qfpw7-11" value="" style="line;strokeWidth=1;fillColor=none;align=left;verticalAlign=middle;spacingTop=-1;spacingLeft=3;spacingRight=3;rotatable=0;labelPosition=right;points=[];portConstraint=eastwest;strokeColor=inherit;" vertex="1" parent="5-nP5moGx_K60F7qfpw7-9">
          <mxGeometry y="26" width="350" height="8" as="geometry" />
        </mxCell>
        <mxCell id="5-nP5moGx_K60F7qfpw7-12" value="&lt;div&gt;+ get_names(): String[]&lt;br&gt;- build_row(index: Integer, obj: Object): Object[]&lt;/div&gt;" style="text;strokeColor=none;fillColor=none;align=left;verticalAlign=top;spacingLeft=4;spacingRight=4;overflow=hidden;rotatable=0;points=[[0,0.5],[1,0.5]];portConstraint=eastwest;whiteSpace=wrap;html=1;" vertex="1" parent="5-nP5moGx_K60F7qfpw7-9">
          <mxGeometry y="34" width="350" height="56" as="geometry" />
        </mxCell>
        <mxCell id="5-nP5moGx_K60F7qfpw7-13" value="&amp;lt;&amp;lt;module&amp;gt;&amp;gt;&lt;br&gt;Deep_dup" style="swimlane;fontStyle=1;align=center;verticalAlign=top;childLayout=stackLayout;horizontal=1;startSize=40;horizontalStack=0;resizeParent=1;resizeParentMax=0;resizeLast=0;collapsible=1;marginBottom=0;whiteSpace=wrap;html=1;" vertex="1" parent="1">
          <mxGeometry x="-440" y="1100" width="350" height="90" as="geometry" />
        </mxCell>
        <mxCell id="5-nP5moGx_K60F7qfpw7-14" value="" style="line;strokeWidth=1;fillColor=none;align=left;verticalAlign=middle;spacingTop=-1;spacingLeft=3;spacingRight=3;rotatable=0;labelPosition=right;points=[];portConstraint=eastwest;strokeColor=inherit;" vertex="1" parent="5-nP5moGx_K60F7qfpw7-13">
          <mxGeometry y="40" width="350" height="8" as="geometry" />
        </mxCell>
        <mxCell id="5-nP5moGx_K60F7qfpw7-15" value="+ deep_dup(element: Object): Object" style="text;strokeColor=none;fillColor=none;align=left;verticalAlign=top;spacingLeft=4;spacingRight=4;overflow=hidden;rotatable=0;points=[[0,0.5],[1,0.5]];portConstraint=eastwest;whiteSpace=wrap;html=1;" vertex="1" parent="5-nP5moGx_K60F7qfpw7-13">
          <mxGeometry y="48" width="350" height="42" as="geometry" />
        </mxCell>
        <mxCell id="5-nP5moGx_K60F7qfpw7-17" value="" style="endArrow=block;dashed=1;endFill=0;endSize=12;html=1;rounded=0;exitX=0.544;exitY=1.015;exitDx=0;exitDy=0;exitPerimeter=0;entryX=0.999;entryY=0.529;entryDx=0;entryDy=0;entryPerimeter=0;" edge="1" parent="1" source="5-nP5moGx_K60F7qfpw7-12" target="5-nP5moGx_K60F7qfpw7-8">
          <mxGeometry width="160" relative="1" as="geometry">
            <mxPoint x="590" y="1200" as="sourcePoint" />
            <mxPoint x="700" y="1340" as="targetPoint" />
            <Array as="points">
              <mxPoint x="640" y="1380" />
            </Array>
          </mxGeometry>
        </mxCell>
        <mxCell id="5-nP5moGx_K60F7qfpw7-20" value="" style="endArrow=block;dashed=1;endFill=0;endSize=12;html=1;rounded=0;exitX=0.5;exitY=0;exitDx=0;exitDy=0;" edge="1" parent="1" source="5-nP5moGx_K60F7qfpw7-13">
          <mxGeometry width="160" relative="1" as="geometry">
            <mxPoint x="-290" y="980" as="sourcePoint" />
            <mxPoint x="30" y="1006" as="targetPoint" />
            <Array as="points">
              <mxPoint x="-265" y="1006" />
            </Array>
          </mxGeometry>
        </mxCell>
        <mxCell id="5-nP5moGx_K60F7qfpw7-21" value="" style="endArrow=block;dashed=1;endFill=0;endSize=12;html=1;rounded=0;exitX=0.503;exitY=1.005;exitDx=0;exitDy=0;exitPerimeter=0;" edge="1" parent="1" source="5-nP5moGx_K60F7qfpw7-15">
          <mxGeometry width="160" relative="1" as="geometry">
            <mxPoint x="-265" y="1434" as="sourcePoint" />
            <mxPoint x="30" y="1340" as="targetPoint" />
            <Array as="points">
              <mxPoint x="-265" y="1340" />
            </Array>
          </mxGeometry>
        </mxCell>
        <mxCell id="KkiaDDsZdYViQD7Pt-F1-1" value="Students_list" style="swimlane;fontStyle=1;align=center;verticalAlign=top;childLayout=stackLayout;horizontal=1;startSize=26;horizontalStack=0;resizeParent=1;resizeParentMax=0;resizeLast=0;collapsible=1;marginBottom=0;whiteSpace=wrap;html=1;" vertex="1" parent="1">
          <mxGeometry x="30" y="1530" width="350" height="380" as="geometry" />
        </mxCell>
        <mxCell id="KkiaDDsZdYViQD7Pt-F1-2" value="- file_path: String&lt;br&gt;- students: Student[]&lt;br&gt;- data_storage_strategy: Data_storage_strategy" style="text;strokeColor=none;fillColor=none;align=left;verticalAlign=top;spacingLeft=4;spacingRight=4;overflow=hidden;rotatable=0;points=[[0,0.5],[1,0.5]];portConstraint=eastwest;whiteSpace=wrap;html=1;" vertex="1" parent="KkiaDDsZdYViQD7Pt-F1-1">
          <mxGeometry y="26" width="350" height="54" as="geometry" />
        </mxCell>
        <mxCell id="KkiaDDsZdYViQD7Pt-F1-3" value="" style="line;strokeWidth=1;fillColor=none;align=left;verticalAlign=middle;spacingTop=-1;spacingLeft=3;spacingRight=3;rotatable=0;labelPosition=right;points=[];portConstraint=eastwest;strokeColor=inherit;" vertex="1" parent="KkiaDDsZdYViQD7Pt-F1-1">
          <mxGeometry y="80" width="350" height="8" as="geometry" />
        </mxCell>
        <mxCell id="KkiaDDsZdYViQD7Pt-F1-4" value="&lt;div&gt;+ read(): Student[]&lt;br&gt;+ write()&lt;br&gt;+ get_student_by_id(id: Integer): Student&lt;br&gt;+ get_k_n_student_short_list(k, n: Integer, data_list: Data_list_student_short): Data_list_student_short&lt;br&gt;&lt;br&gt;+ sort_by_full_name!()&lt;br&gt;+ add_student(student: Student)&lt;br&gt;+ replace_student(id: Integer, new_student: Student)&lt;br&gt;+ delete_student(id: Integer)&lt;br&gt;+ get_student_short_count(): Integer&lt;br&gt;&lt;br&gt;- file_path: String&amp;nbsp; &amp;nbsp; &amp;nbsp; &amp;nbsp; &amp;nbsp; &amp;nbsp; &amp;nbsp; &amp;nbsp; &amp;nbsp; &amp;nbsp; &amp;nbsp; &amp;nbsp; &amp;nbsp; &amp;nbsp; &amp;nbsp; &amp;nbsp; &amp;nbsp; &amp;nbsp; &amp;nbsp; &amp;nbsp; &amp;nbsp; &amp;nbsp; &amp;nbsp; &amp;nbsp; &amp;nbsp; &amp;nbsp; &amp;nbsp; &amp;nbsp; &amp;nbsp; &amp;nbsp; &amp;nbsp; &amp;nbsp; &amp;nbsp; &amp;nbsp; &amp;nbsp;get&lt;br&gt;- file_path=(file_path)&amp;nbsp; &amp;nbsp; &amp;nbsp; &amp;nbsp; &amp;nbsp; &amp;nbsp; &amp;nbsp; &amp;nbsp; &amp;nbsp; &amp;nbsp; &amp;nbsp; &amp;nbsp; &amp;nbsp; &amp;nbsp; &amp;nbsp; &amp;nbsp; &amp;nbsp; &amp;nbsp; &amp;nbsp; &amp;nbsp; &amp;nbsp; &amp;nbsp; &amp;nbsp; &amp;nbsp; &amp;nbsp; &amp;nbsp; &amp;nbsp; &amp;nbsp; &amp;nbsp; &amp;nbsp; &amp;nbsp; set&lt;br&gt;- students: Student[]&amp;nbsp; &amp;nbsp; &amp;nbsp; &amp;nbsp; &amp;nbsp; &amp;nbsp; &amp;nbsp; &amp;nbsp; &amp;nbsp; &amp;nbsp; &amp;nbsp; &amp;nbsp; &amp;nbsp; &amp;nbsp; &amp;nbsp; &amp;nbsp; &amp;nbsp; &amp;nbsp; &amp;nbsp; &amp;nbsp; &amp;nbsp; &amp;nbsp; &amp;nbsp; &amp;nbsp; &amp;nbsp; &amp;nbsp; &amp;nbsp; &amp;nbsp; &amp;nbsp; &amp;nbsp; &amp;nbsp; &amp;nbsp; get&lt;br&gt;- students=(students: Student[])&amp;nbsp; &amp;nbsp; &amp;nbsp; &amp;nbsp; &amp;nbsp; &amp;nbsp; &amp;nbsp; &amp;nbsp; &amp;nbsp; &amp;nbsp; &amp;nbsp; &amp;nbsp; &amp;nbsp; &amp;nbsp; &amp;nbsp; &amp;nbsp; &amp;nbsp; &amp;nbsp; &amp;nbsp; &amp;nbsp; &amp;nbsp; &amp;nbsp; &amp;nbsp; set&lt;br&gt;&lt;br&gt;+ &amp;lt;&amp;lt;create&amp;gt;&amp;gt; new(file_path: String, data_storage_strategy: Data_storage_strategy)&lt;br&gt;&lt;br&gt;&lt;br&gt;&lt;/div&gt;" style="text;strokeColor=none;fillColor=none;align=left;verticalAlign=top;spacingLeft=4;spacingRight=4;overflow=hidden;rotatable=0;points=[[0,0.5],[1,0.5]];portConstraint=eastwest;whiteSpace=wrap;html=1;" vertex="1" parent="KkiaDDsZdYViQD7Pt-F1-1">
          <mxGeometry y="88" width="350" height="292" as="geometry" />
        </mxCell>
        <mxCell id="KkiaDDsZdYViQD7Pt-F1-19" value="Data_storage_strategy" style="swimlane;fontStyle=1;align=center;verticalAlign=top;childLayout=stackLayout;horizontal=1;startSize=26;horizontalStack=0;resizeParent=1;resizeParentMax=0;resizeLast=0;collapsible=1;marginBottom=0;whiteSpace=wrap;html=1;" vertex="1" parent="1">
          <mxGeometry x="-640" y="1640" width="350" height="90" as="geometry" />
        </mxCell>
        <mxCell id="KkiaDDsZdYViQD7Pt-F1-21" value="" style="line;strokeWidth=1;fillColor=none;align=left;verticalAlign=middle;spacingTop=-1;spacingLeft=3;spacingRight=3;rotatable=0;labelPosition=right;points=[];portConstraint=eastwest;strokeColor=inherit;" vertex="1" parent="KkiaDDsZdYViQD7Pt-F1-19">
          <mxGeometry y="26" width="350" height="8" as="geometry" />
        </mxCell>
        <mxCell id="KkiaDDsZdYViQD7Pt-F1-23" value="&lt;div&gt;+ &lt;i&gt;read(file_path: String): Student[]&lt;/i&gt;&lt;br&gt;+ &lt;i&gt;write(file_path: String, students: Student[])&lt;/i&gt;&lt;br&gt;&lt;br&gt;&lt;/div&gt;" style="text;strokeColor=none;fillColor=none;align=left;verticalAlign=top;spacingLeft=4;spacingRight=4;overflow=hidden;rotatable=0;points=[[0,0.5],[1,0.5]];portConstraint=eastwest;whiteSpace=wrap;html=1;" vertex="1" parent="KkiaDDsZdYViQD7Pt-F1-19">
          <mxGeometry y="34" width="350" height="56" as="geometry" />
        </mxCell>
        <mxCell id="KkiaDDsZdYViQD7Pt-F1-24" value="JSON_storage_strategy" style="swimlane;fontStyle=1;align=center;verticalAlign=top;childLayout=stackLayout;horizontal=1;startSize=26;horizontalStack=0;resizeParent=1;resizeParentMax=0;resizeLast=0;collapsible=1;marginBottom=0;whiteSpace=wrap;html=1;" vertex="1" parent="1">
          <mxGeometry x="-830" y="1850" width="350" height="90" as="geometry" />
        </mxCell>
        <mxCell id="KkiaDDsZdYViQD7Pt-F1-25" value="" style="line;strokeWidth=1;fillColor=none;align=left;verticalAlign=middle;spacingTop=-1;spacingLeft=3;spacingRight=3;rotatable=0;labelPosition=right;points=[];portConstraint=eastwest;strokeColor=inherit;" vertex="1" parent="KkiaDDsZdYViQD7Pt-F1-24">
          <mxGeometry y="26" width="350" height="8" as="geometry" />
        </mxCell>
        <mxCell id="KkiaDDsZdYViQD7Pt-F1-26" value="&lt;div&gt;+ read(file_path: String): Student[]&lt;br&gt;+ write(file_path: String, students: Student[])&lt;br&gt;&lt;br&gt;&lt;/div&gt;" style="text;strokeColor=none;fillColor=none;align=left;verticalAlign=top;spacingLeft=4;spacingRight=4;overflow=hidden;rotatable=0;points=[[0,0.5],[1,0.5]];portConstraint=eastwest;whiteSpace=wrap;html=1;" vertex="1" parent="KkiaDDsZdYViQD7Pt-F1-24">
          <mxGeometry y="34" width="350" height="56" as="geometry" />
        </mxCell>
        <mxCell id="KkiaDDsZdYViQD7Pt-F1-27" value="JSON_storage_strategy" style="swimlane;fontStyle=1;align=center;verticalAlign=top;childLayout=stackLayout;horizontal=1;startSize=26;horizontalStack=0;resizeParent=1;resizeParentMax=0;resizeLast=0;collapsible=1;marginBottom=0;whiteSpace=wrap;html=1;" vertex="1" parent="1">
          <mxGeometry x="-440" y="1850" width="350" height="90" as="geometry" />
        </mxCell>
        <mxCell id="KkiaDDsZdYViQD7Pt-F1-28" value="" style="line;strokeWidth=1;fillColor=none;align=left;verticalAlign=middle;spacingTop=-1;spacingLeft=3;spacingRight=3;rotatable=0;labelPosition=right;points=[];portConstraint=eastwest;strokeColor=inherit;" vertex="1" parent="KkiaDDsZdYViQD7Pt-F1-27">
          <mxGeometry y="26" width="350" height="8" as="geometry" />
        </mxCell>
        <mxCell id="KkiaDDsZdYViQD7Pt-F1-29" value="&lt;div&gt;+ read(file_path: String): Student[]&lt;br&gt;+ write(file_path: String, students: Student[])&lt;br&gt;&lt;br&gt;&lt;/div&gt;" style="text;strokeColor=none;fillColor=none;align=left;verticalAlign=top;spacingLeft=4;spacingRight=4;overflow=hidden;rotatable=0;points=[[0,0.5],[1,0.5]];portConstraint=eastwest;whiteSpace=wrap;html=1;" vertex="1" parent="KkiaDDsZdYViQD7Pt-F1-27">
          <mxGeometry y="34" width="350" height="56" as="geometry" />
        </mxCell>
        <mxCell id="KkiaDDsZdYViQD7Pt-F1-30" value="" style="endArrow=block;dashed=1;endFill=0;endSize=12;html=1;rounded=0;exitX=0.5;exitY=0;exitDx=0;exitDy=0;entryX=0.515;entryY=0.999;entryDx=0;entryDy=0;entryPerimeter=0;" edge="1" parent="1" source="KkiaDDsZdYViQD7Pt-F1-24" target="KkiaDDsZdYViQD7Pt-F1-23">
          <mxGeometry width="160" relative="1" as="geometry">
            <mxPoint x="-670" y="1800" as="sourcePoint" />
            <mxPoint x="-510" y="1800" as="targetPoint" />
            <Array as="points">
              <mxPoint x="-655" y="1800" />
              <mxPoint x="-460" y="1800" />
            </Array>
          </mxGeometry>
        </mxCell>
        <mxCell id="KkiaDDsZdYViQD7Pt-F1-31" value="" style="endArrow=block;dashed=1;endFill=0;endSize=12;html=1;rounded=0;exitX=0.5;exitY=0;exitDx=0;exitDy=0;" edge="1" parent="1" source="KkiaDDsZdYViQD7Pt-F1-27">
          <mxGeometry width="160" relative="1" as="geometry">
            <mxPoint x="-650" y="1859" as="sourcePoint" />
            <mxPoint x="-460" y="1730" as="targetPoint" />
            <Array as="points">
              <mxPoint x="-265" y="1800" />
              <mxPoint x="-460" y="1800" />
            </Array>
          </mxGeometry>
        </mxCell>
        <mxCell id="KkiaDDsZdYViQD7Pt-F1-33" value="" style="endArrow=diamondThin;endFill=0;endSize=24;html=1;rounded=0;exitX=0.001;exitY=0.349;exitDx=0;exitDy=0;exitPerimeter=0;" edge="1" parent="1" source="KkiaDDsZdYViQD7Pt-F1-4">
          <mxGeometry width="160" relative="1" as="geometry">
            <mxPoint x="-240" y="1740" as="sourcePoint" />
            <mxPoint x="-290" y="1720" as="targetPoint" />
          </mxGeometry>
        </mxCell>
        <mxCell id="KkiaDDsZdYViQD7Pt-F1-36" value="Use" style="endArrow=open;endSize=12;dashed=1;html=1;rounded=0;exitX=0.25;exitY=0;exitDx=0;exitDy=0;entryX=0.001;entryY=0.103;entryDx=0;entryDy=0;entryPerimeter=0;" edge="1" parent="1" source="KkiaDDsZdYViQD7Pt-F1-19" target="8w9vdPJpi9KEnKkPlF_M-8">
          <mxGeometry width="160" relative="1" as="geometry">
            <mxPoint x="-830" y="1480" as="sourcePoint" />
            <mxPoint x="-540" y="528.8888888888889" as="targetPoint" />
            <Array as="points">
              <mxPoint x="-552" y="563" />
            </Array>
          </mxGeometry>
        </mxCell>
        <mxCell id="KkiaDDsZdYViQD7Pt-F1-37" value="" style="endArrow=diamondThin;endFill=0;endSize=24;html=1;rounded=0;exitX=0.001;exitY=0.076;exitDx=0;exitDy=0;exitPerimeter=0;entryX=-0.001;entryY=0.561;entryDx=0;entryDy=0;entryPerimeter=0;" edge="1" parent="1" source="KkiaDDsZdYViQD7Pt-F1-4" target="8w9vdPJpi9KEnKkPlF_M-8">
          <mxGeometry width="160" relative="1" as="geometry">
            <mxPoint x="-250" y="1520" as="sourcePoint" />
            <mxPoint x="-90" y="1520" as="targetPoint" />
            <Array as="points">
              <mxPoint x="-60" y="1640" />
              <mxPoint x="-60" y="720" />
            </Array>
          </mxGeometry>
        </mxCell>
        <mxCell id="KkiaDDsZdYViQD7Pt-F1-38" value="Use" style="endArrow=open;endSize=12;dashed=1;html=1;rounded=0;exitX=0.5;exitY=0;exitDx=0;exitDy=0;entryX=0.5;entryY=1;entryDx=0;entryDy=0;entryPerimeter=0;" edge="1" parent="1" source="5-nP5moGx_K60F7qfpw7-5" target="5-nP5moGx_K60F7qfpw7-4">
          <mxGeometry width="160" relative="1" as="geometry">
            <mxPoint x="200" y="1170" as="sourcePoint" />
            <mxPoint x="206" y="1110" as="targetPoint" />
          </mxGeometry>
        </mxCell>
        <mxCell id="KkiaDDsZdYViQD7Pt-F1-39" value="Use" style="endArrow=open;endSize=12;dashed=1;html=1;rounded=0;entryX=0.747;entryY=0.999;entryDx=0;entryDy=0;entryPerimeter=0;" edge="1" parent="1" target="8w9vdPJpi9KEnKkPlF_M-12">
          <mxGeometry width="160" relative="1" as="geometry">
            <mxPoint x="380" y="1720" as="sourcePoint" />
            <mxPoint x="810" y="690" as="targetPoint" />
            <Array as="points">
              <mxPoint x="790" y="1720" />
              <mxPoint x="790" y="1430" />
              <mxPoint x="820" y="1430" />
              <mxPoint x="820" y="920" />
              <mxPoint x="710" y="920" />
            </Array>
          </mxGeometry>
        </mxCell>
        <mxCell id="KkiaDDsZdYViQD7Pt-F1-40" value="Use" style="endArrow=open;endSize=12;dashed=1;html=1;rounded=0;entryX=0.856;entryY=1;entryDx=0;entryDy=0;entryPerimeter=0;" edge="1" parent="1" target="5-nP5moGx_K60F7qfpw7-12">
          <mxGeometry width="160" relative="1" as="geometry">
            <mxPoint x="380" y="1680" as="sourcePoint" />
            <mxPoint x="540" y="1680" as="targetPoint" />
            <Array as="points">
              <mxPoint x="748" y="1680" />
            </Array>
          </mxGeometry>
        </mxCell>
        <mxCell id="KkiaDDsZdYViQD7Pt-F1-42" value="Use" style="endArrow=open;endSize=12;dashed=1;html=1;rounded=0;exitX=0.423;exitY=0.003;exitDx=0;exitDy=0;exitPerimeter=0;entryX=0.425;entryY=1.002;entryDx=0;entryDy=0;entryPerimeter=0;" edge="1" parent="1" source="5-nP5moGx_K60F7qfpw7-9" target="8w9vdPJpi9KEnKkPlF_M-12">
          <mxGeometry width="160" relative="1" as="geometry">
            <mxPoint x="610" y="1000" as="sourcePoint" />
            <mxPoint x="770" y="1000" as="targetPoint" />
          </mxGeometry>
        </mxCell>
      </root>
    </mxGraphModel>
  </diagram>
</mxfile>
